<svg width="32" height="22" viewBox="0 0 32 22" fill="none" xmlns="http://www.w3.org/2000/svg">
<path d="M0.295898 1.31543C0.295898 0.752356 0.752356 0.295898 1.31543 0.295898H30.6844C31.2475 0.295898 31.7039 0.752356 31.7039 1.31543V20.2918C31.7039 20.8549 31.2475 21.3113 30.6844 21.3113H1.31543C0.752357 21.3113 0.295898 20.8549 0.295898 20.2918V1.31543Z" fill="#00D930"/>
<path fill-rule="evenodd" clip-rule="evenodd" d="M1.31552 0H30.6845C31.411 0 32 0.588978 32 1.31552V20.2919C32 21.0184 31.411 21.6074 30.6845 21.6074H1.31552C0.588979 21.6074 0 21.0184 0 20.2919V1.31552C0 0.588978 0.588978 0 1.31552 0ZM1.31552 0.295992C0.75245 0.295992 0.295992 0.752449 0.295992 1.31552V20.2919C0.295992 20.855 0.75245 21.3114 1.31552 21.3114H30.6845C31.2476 21.3114 31.704 20.855 31.704 20.2919V1.31552C31.704 0.75245 31.2476 0.295992 30.6845 0.295992H1.31552Z" fill="#141414"/>
<path d="M7.42475 11.1553L4.22942 9.85543C3.55937 9.58286 3.52525 8.64683 4.17367 8.32619C4.39246 8.218 4.64751 8.21044 4.87232 8.3055L11.5922 11.1469C12.4222 11.4978 12.4222 12.674 11.5922 13.0249L4.83315 15.8829C4.63185 15.968 4.40466 15.968 4.20336 15.8829C3.54393 15.604 3.54551 14.669 4.20588 14.3924L7.43446 13.04C8.27332 12.6887 8.26718 11.498 7.42475 11.1553Z" fill="#141414"/>
<path d="M13.188 16.0166V5.80961H15.8298V7.75822H16.5469L15.7355 8.94594C15.7355 7.84482 15.9934 7.01589 16.5091 6.45914C17.0249 5.9024 17.7797 5.62402 18.7736 5.62402C19.9183 5.62402 20.8052 5.96426 21.4342 6.64473C22.0758 7.32519 22.3966 8.28403 22.3966 9.52125V10.3564H19.3774V9.70683C19.3774 9.15008 19.2201 8.71706 18.9056 8.40775C18.6037 8.09845 18.1949 7.9438 17.6791 7.9438C17.1381 7.9438 16.723 8.09845 16.4337 8.40775C16.1569 8.71706 16.0185 9.15008 16.0185 9.70683V16.0166H13.188Z" fill="#141414"/>
<path d="M10.4255 16.937C10.4255 16.7372 10.5875 16.5752 10.7873 16.5752H23.4821C23.6819 16.5752 23.8438 16.7372 23.8438 16.937V19.7653C23.8438 19.9651 23.6819 20.1271 23.4821 20.1271H10.7873C10.5875 20.1271 10.4255 19.9651 10.4255 19.7653V16.937Z" fill="#141414"/>
<path d="M0.197266 3.4209H31.7368V3.71689H0.197266V3.4209Z" fill="#141414"/>
<path d="M21.147 1.74288C21.147 1.67023 21.2059 1.61133 21.2785 1.61133H23.2518C23.3245 1.61133 23.3834 1.67023 23.3834 1.74288V2.03887C23.3834 2.11153 23.3245 2.17042 23.2518 2.17042H21.2785C21.2059 2.17042 21.147 2.11153 21.147 2.03887V1.74288Z" fill="#141414"/>
<path d="M28.4426 2.5774C28.3913 2.52602 28.3913 2.44273 28.4426 2.39135L29.8379 0.996035C29.8893 0.944661 29.9726 0.944661 30.024 0.996035L30.2333 1.20533C30.2847 1.25671 30.2847 1.34 30.2333 1.39138L28.838 2.78669C28.7866 2.83807 28.7033 2.83807 28.6519 2.78669L28.4426 2.5774Z" fill="#141414"/>
<path d="M30.0256 2.77124C29.9743 2.82261 29.891 2.82261 29.8396 2.77124L28.4443 1.37592C28.3929 1.32454 28.3929 1.24125 28.4443 1.18988L28.6536 0.980578C28.7049 0.929204 28.7882 0.929204 28.8396 0.980578L30.2349 2.3759C30.2863 2.42727 30.2863 2.51056 30.2349 2.56194L30.0256 2.77124Z" fill="#141414"/>
<path fill-rule="evenodd" clip-rule="evenodd" d="M26.3433 1.28301H25.3896C25.2988 1.28301 25.2252 1.35663 25.2252 1.44745V2.30254C25.2252 2.39336 25.2988 2.46698 25.3896 2.46698H26.3433C26.4342 2.46698 26.5078 2.39336 26.5078 2.30254V1.44745C26.5078 1.35663 26.4342 1.28301 26.3433 1.28301ZM25.3896 0.855469C25.0626 0.855469 24.7976 1.12051 24.7976 1.44745V2.30254C24.7976 2.62948 25.0626 2.89452 25.3896 2.89452H26.3433C26.6703 2.89452 26.9353 2.62948 26.9353 2.30254V1.44745C26.9353 1.12051 26.6703 0.855469 26.3433 0.855469H25.3896Z" fill="#141414"/>
</svg>
